<svg viewBox="0 0 72 32" xmlns="http://www.w3.org/2000/svg" xml:space="preserve" fill-rule="evenodd" clip-rule="evenodd" stroke-linejoin="round" stroke-miterlimit="2"><g fill="#1c4b82"><path d="M4.397 30.571v-7.08H1.613v-1.32h7.128v1.32H5.957v7.08h-1.56Zm11.424-8.4h1.56v8.4h-1.56v-3.6h-4.344v3.6h-1.56v-8.4h1.56v3.468h4.344v-3.468Zm5.376 7.092h4.74v1.308h-6.3v-8.4h6.132v1.308h-4.572v2.184h4.056v1.284h-4.056v2.316Zm12.396 1.428c-1.308 0-2.616-.408-3.312-1.008l.54-1.212c.672.54 1.74.924 2.772.924 1.308 0 1.86-.468 1.86-1.092 0-1.812-4.992-.624-4.992-3.744 0-1.356 1.08-2.508 3.384-2.508 1.008 0 2.064.264 2.796.744l-.492 1.212c-.756-.444-1.584-.66-2.316-.66-1.296 0-1.824.504-1.824 1.14 0 1.788 4.98.624 4.98 3.708 0 1.344-1.092 2.496-3.396 2.496Zm6.528-.12v-7.08h-2.784v-1.32h7.128v1.32h-2.784v7.08h-1.56Zm11.388 0-.84-1.944h-4.2l-.828 1.944h-1.608l3.78-8.4h1.536l3.792 8.4h-1.632Zm-4.512-3.168h3.156l-1.584-3.672-1.572 3.672Zm10.98 3.288c-2.568 0-4.488-1.812-4.488-4.32s1.92-4.32 4.5-4.32c1.368 0 2.544.492 3.324 1.404l-1.008.948c-.612-.66-1.368-.984-2.244-.984-1.74 0-3 1.224-3 2.952s1.26 2.952 3 2.952c.876 0 1.632-.324 2.244-.996l1.008.96c-.78.912-1.956 1.404-3.336 1.404Zm10.692-.12-2.964-3.516-1.332 1.368v2.148h-1.56v-8.4h1.56v4.308l4.152-4.308h1.752l-3.528 3.756 3.744 4.644h-1.824Z"/><path d="M70.841 16.9H1.159c-.393 0-.711.205-.711.459 0 .253.318.459.711.459h69.682c.393 0 .711-.206.711-.459 0-.254-.318-.459-.711-.459ZM70.841 19.019H1.159c-.393 0-.711.205-.711.458 0 .254.318.459.711.459h69.682c.393 0 .711-.205.711-.459 0-.253-.318-.458-.711-.458ZM31.867 3.071a.484.484 0 0 0-.686 0l-4.818 4.817a.484.484 0 0 0 0 .686l4.818 4.817a.483.483 0 0 0 .686 0 .486.486 0 0 0 0-.686l-4.475-4.474 4.475-4.475a.485.485 0 0 0 0-.685Zm13.77 4.817-4.818-4.817a.484.484 0 1 0-.686.685l4.475 4.475-4.475 4.474a.486.486 0 0 0 .686.686l4.818-4.817a.489.489 0 0 0 0-.686Zm-6.435-6.644a.485.485 0 0 0-.643.239l-6 13.092a.485.485 0 1 0 .882.404l6-13.092a.485.485 0 0 0-.239-.643Z" fill-rule="nonzero"/></g></svg>