<svg viewBox="0 0 367 367" xmlns="http://www.w3.org/2000/svg" xml:space="preserve" style="fill-rule:evenodd;clip-rule:evenodd;stroke-linejoin:round;stroke-miterlimit:2"><path class="bg" d="M-.15 0h366.667v366.667H-.15z"/><path d="M326.984 310.105H36.639c-1.636 0-2.962 1.866-2.962 4.167 0 2.301 1.326 4.167 2.962 4.167h290.345c1.636 0 2.962-1.866 2.962-4.167 0-2.301-1.326-4.167-2.962-4.167Zm0 17.161H36.639c-1.636 0-2.962 1.867-2.962 4.167 0 2.301 1.326 4.167 2.962 4.167h290.345c1.636 0 2.962-1.866 2.962-4.167 0-2.3-1.326-4.167-2.962-4.167Z" class="brand"/><clipPath id="a"><path d="M50 74.968h266.667v191.731H50z"/></clipPath><g clip-path="url(#a)"><path d="M126.974 100.474a6.61 6.61 0 0 0-9.349 0l-65.687 65.684a6.609 6.609 0 0 0 0 9.349l65.687 65.685a6.583 6.583 0 0 0 4.675 1.937 6.61 6.61 0 0 0 4.674-11.285L65.96 170.833l61.014-61.011a6.61 6.61 0 0 0 0-9.348Zm187.755 65.684-65.688-65.684a6.609 6.609 0 0 0-9.348 0 6.609 6.609 0 0 0 0 9.348l61.014 61.011-61.014 61.011a6.609 6.609 0 0 0 0 9.348 6.582 6.582 0 0 0 4.674 1.937 6.584 6.584 0 0 0 4.674-1.937l65.688-65.685a6.613 6.613 0 0 0 1.938-4.674 6.615 6.615 0 0 0-1.938-4.675Zm-87.733-90.59c-3.314-1.514-7.243-.069-8.764 3.256l-81.817 178.51a6.61 6.61 0 1 0 12.019 5.508l81.818-178.51a6.611 6.611 0 0 0-3.256-8.764Z" class="brand"/></g><style>.bg{fill:#fff;}.brand{fill:#1c4b82;fill-rule:nonzero;}@media(prefers-color-scheme:dark){.bg{fill:#1c4b82;}.brand{fill:#fff;}}</style></svg>